NOT MY RIP, GOT IT ELSEWHERE THANKS TU THE ORIGINAL UPPER


Fathers.of.Girls.2009.(Ray Winstone).DVDRiP.XviD-UNVEiL

Plot:

Ray Winstone plays Frank Horner, a solicitor based in a small town in Wiltshire, England. His daughter Helen is leaving home for the first time to go to university and move in with her boyfriend. Frank has to come to terms with parting from his ‘princess’, whom he has smothered with love for over 20 years. How does he cope when something unexpected happens to her? Frank has to search for the answers, which brings him into contact with the murky world of Helen’s dark side. A story of the unconditional love a father has for his daughter.

General

Complete name : Fathers.of.Girls.2009.avi
Format : AVI
Format/Info : Audio Video Interleave
File size : 350 MiB
Duration : 1h 12mn
Overall bit rate : 671 Kbps
Writing application : VirtualDubMod 1.5.10.2 (build 2540/release)
Writing library : VirtualDubMod build 2540/release

Video
ID : 0
Format : MPEG-4 Visual
Format profile : AdvancedSimple@L5
Format settings, BVOP : Yes
Format settings, QPel : No
Format settings, GMC : No warppoints
Format settings, Matrix : Default (H.263)
Codec ID : XVID
Codec ID/Hint : XviD
Duration : 1h 12mn
Bit rate : 536 Kbps
Width : 592 pixels
Height : 240 pixels
Display aspect ratio : 2.467
Frame rate : 25.000 fps
Resolution : 24 bits
Colorimetry : 4:2:0
Scan type : Progressive
Bits/(Pixel*Frame) : 0.151
Stream size : 279 MiB (80%)
Writing library : XviD 1.2.1 (UTC 2008-12-04)

Audio
ID : 1
Format : MPEG Audio
Format version : Version 1
Format profile : Layer 3
Codec ID : 55
Codec ID/Hint : MP3
Duration : 1h 12mn
Bit rate mode : Variable
Bit rate : 123 Kbps
Nominal bit rate : 128 Kbps
Channel(s) : 2 channels
Sampling rate : 48.0 KHz
Resolution : 16 bits
Stream size : 63.8 MiB (18%)
Alignment : Aligned on interleaves
Interleave, duration : 24 ms (0.60 video frame)
Interleave, preload duration : 554 ms
Writing library : LAME3.98
Encoding settings : -m j -V 4 -q 3 -lowpass 17 --abr 128 